<?xml version="1.0" encoding="UTF-8"?>
<svg id="svg_general" xmlns="http://www.w3.org/2000/svg" xmlns:xlink="http://www.w3.org/1999/xlink" viewBox="0 0 1456 461">
  <defs>
    <style>
      .conveyor-fill{
      fill:#e6e7e8;
      }
      .photoeye-fill{
      fill:#CCC;
      }
      .bin-fill{
      fill: #e6e7e8;
      }
      .conveyor, .conveyor-bg, .bin, .photoeye{

      }
      .conveyor .status{
      fill: transparent;
      stroke-width:2;
      stroke:#28ad3f;
      }
      .cursor-pointer {
      cursor:pointer;
      }
    </style>
  </defs>
  <image href="components/general/<%= system_general_layout_no %>/bg.png"/>


  <g transform="translate(20,220)" class="conveyor" gui-conveyor-id="10" conveyor-id="1" data-toggle="tooltip" data-html="true" title="Conveyor">
    <rect width="99" height="35" rx="4" ry="4" class="status"/>
  </g>
  <g transform="translate(124,220)" class="conveyor" gui-conveyor-id="10" conveyor-id="1" data-toggle="tooltip" data-html="true" title="">
    <rect width="58" height="35" rx="4" ry="4" class="status"/>
  </g>
  <g transform="translate(187,220)" class="conveyor" gui-conveyor-id="10" conveyor-id="1" data-toggle="tooltip" data-html="true" title="">
    <rect width="57" height="35" rx="4" ry="4" class="status"/>
  </g>
  <g transform="translate(249,220)" class="conveyor" gui-conveyor-id="10" conveyor-id="1" data-toggle="tooltip" data-html="true" title="">
    <rect width="57" height="35" rx="4" ry="4" class="status"/>
  </g>
  <g transform="translate(311,220)" class="conveyor" gui-conveyor-id="10" conveyor-id="1" data-toggle="tooltip" data-html="true" title="">
    <rect width="47" height="35" rx="4" ry="4" class="status"/>
  </g>
  <g transform="translate(363,220)" class="conveyor" gui-conveyor-id="10" conveyor-id="1" data-toggle="tooltip" data-html="true" title="">
    <rect width="46" height="35" rx="4" ry="4" class="status"/>
  </g>
  <g transform="translate(414,220)" class="conveyor" gui-conveyor-id="10" conveyor-id="1" data-toggle="tooltip" data-html="true" title="">
    <rect width="100" height="35" rx="4" ry="4" class="status"/>
  </g>
  <g transform="translate(519,220)" class="conveyor" gui-conveyor-id="10" conveyor-id="1" data-toggle="tooltip" data-html="true" title="">
    <rect width="57" height="35" rx="4" ry="4" class="status"/>
  </g>
  <g transform="translate(581,220)" class="conveyor" gui-conveyor-id="10" conveyor-id="1" data-toggle="tooltip" data-html="true" title="">
    <rect width="47" height="35" rx="4" ry="4" class="status"/>
  </g>
  <g transform="translate(633,220)" class="conveyor" gui-conveyor-id="10" conveyor-id="1" data-toggle="tooltip" data-html="true" title="">
    <rect width="46" height="35" rx="4" ry="4" class="status"/>
  </g>
  <g transform="translate(684,220)" class="conveyor" gui-conveyor-id="10" conveyor-id="1" data-toggle="tooltip" data-html="true" title="">
    <rect width="47" height="35" rx="4" ry="4" class="status"/>
  </g>
  <g transform="translate(736,220)" class="conveyor" gui-conveyor-id="10" conveyor-id="1" data-toggle="tooltip" data-html="true" title="">
    <rect width="47" height="35" rx="4" ry="4" class="status"/>
  </g>
  <g transform="translate(788,220)" class="conveyor" gui-conveyor-id="10" conveyor-id="1" data-toggle="tooltip" data-html="true" title="">
    <rect width="46" height="35" rx="4" ry="4" class="status"/>
  </g>
  <g transform="translate(839,220)" class="conveyor" gui-conveyor-id="10" conveyor-id="1" data-toggle="tooltip" data-html="true" title="">
    <rect width="46" height="35" rx="4" ry="4" class="status"/>
  </g>
  <g transform="translate(890,220)" class="conveyor" gui-conveyor-id="10" conveyor-id="1" data-toggle="tooltip" data-html="true" title="">
    <rect width="47" height="35" rx="4" ry="4" class="status"/>
  </g>
  <g transform="translate(942,220)" class="conveyor" gui-conveyor-id="10" conveyor-id="1" data-toggle="tooltip" data-html="true" title="">
    <rect width="57" height="35" rx="4" ry="4" class="status"/>
  </g>
  <g transform="translate(1004,220)" class="conveyor" gui-conveyor-id="10" conveyor-id="1" data-toggle="tooltip" data-html="true" title="">
    <rect width="100" height="35" rx="4" ry="4" class="status"/>
  </g>
  <g transform="translate(1109,220)" class="conveyor" gui-conveyor-id="10" conveyor-id="1" data-toggle="tooltip" data-html="true" title="">
    <rect width="37" height="35" rx="4" ry="4" class="status"/>
  </g>
  <g transform="translate(1151,220)" class="conveyor" gui-conveyor-id="10" conveyor-id="1" data-toggle="tooltip" data-html="true" title="">
    <rect width="100" height="35" rx="4" ry="4" class="status"/>
  </g>
  <g transform="translate(1256,220)" class="conveyor" gui-conveyor-id="10" conveyor-id="1" data-toggle="tooltip" data-html="true" title="">
    <rect width="70" height="35" rx="4" ry="4" class="status"/>
  </g>
  <g transform="translate(1331,220)" class="conveyor" gui-conveyor-id="10" conveyor-id="1" data-toggle="tooltip" data-html="true" title="">
    <rect width="114" height="35" rx="4" ry="4" class="status"/>
  </g>

  <g transform="translate(498,20)" class="conveyor" gui-conveyor-id="10" conveyor-id="1" data-toggle="tooltip" data-html="true" title="">
    <rect width="52" height="105" rx="4" ry="4" class="status"/>
  </g>
  <g transform="translate(503,130)" class="conveyor" gui-conveyor-id="10" conveyor-id="1" data-toggle="tooltip" data-html="true" title="">
    <rect width="42" height="43" rx="4" ry="4" class="status"/>
  </g>
  <g transform="translate(503,178)" class="conveyor" gui-conveyor-id="10" conveyor-id="1" data-toggle="tooltip" data-html="true" title="">
    <rect width="42" height="35" rx="4" ry="4" class="status"/>
  </g>
  <g transform="translate(586,130)" class="conveyor" gui-conveyor-id="10" conveyor-id="1" data-toggle="tooltip" data-html="true" title="">
    <rect width="42" height="35" rx="4" ry="4" class="status"/>
  </g>
  <g transform="translate(586,170)" class="conveyor" gui-conveyor-id="10" conveyor-id="1" data-toggle="tooltip" data-html="true" title="">
    <rect width="42" height="43" rx="4" ry="4" class="status"/>
  </g>
  <g transform="translate(633,130)" class="conveyor" gui-conveyor-id="10" conveyor-id="1" data-toggle="tooltip" data-html="true" title="">
    <rect width="46" height="35" rx="4" ry="4" class="status"/>
  </g>
  <g transform="translate(684,130)" class="conveyor" gui-conveyor-id="10" conveyor-id="1" data-toggle="tooltip" data-html="true" title="">
    <rect width="47" height="35" rx="4" ry="4" class="status"/>
  </g>
  <g transform="translate(736,130)" class="conveyor" gui-conveyor-id="10" conveyor-id="1" data-toggle="tooltip" data-html="true" title="">
    <rect width="47" height="35" rx="4" ry="4" class="status"/>
  </g>
  <g transform="translate(736,170)" class="conveyor" gui-conveyor-id="10" conveyor-id="1" data-toggle="tooltip" data-html="true" title="">
    <rect width="47" height="43" rx="4" ry="4" class="status"/>
  </g>
  <g transform="translate(788,130)" class="conveyor" gui-conveyor-id="10" conveyor-id="1" data-toggle="tooltip" data-html="true" title="">
    <rect width="47" height="35" rx="4" ry="4" class="status"/>
  </g>
  <g transform="translate(840,130)" class="conveyor" gui-conveyor-id="10" conveyor-id="1" data-toggle="tooltip" data-html="true" title="">
    <rect width="42" height="35" rx="4" ry="4" class="status"/>
  </g>
  <g transform="translate(840,170)" class="conveyor" gui-conveyor-id="10" conveyor-id="1" data-toggle="tooltip" data-html="true" title="">
    <rect width="42" height="43" rx="4" ry="4" class="status"/>
  </g>
  <g transform="translate(920,130)" class="conveyor" gui-conveyor-id="10" conveyor-id="1" data-toggle="tooltip" data-html="true" title="">
    <rect width="42" height="43" rx="4" ry="4" class="status"/>
  </g>
  <g transform="translate(920,178)" class="conveyor" gui-conveyor-id="10" conveyor-id="1" data-toggle="tooltip" data-html="true" title="">
    <rect width="42" height="35" rx="4" ry="4" class="status"/>
  </g>
  <g transform="translate(915,20)" class="conveyor" gui-conveyor-id="10" conveyor-id="1" data-toggle="tooltip" data-html="true" title="">
    <rect width="52" height="105" rx="4" ry="4" class="status"/>
  </g>
  <g transform="translate(1244,130)" class="conveyor" gui-conveyor-id="10" conveyor-id="1" data-toggle="tooltip" data-html="true" title="">
    <rect width="42" height="43" rx="4" ry="4" class="status"/>
  </g>
  <g transform="translate(1244,178)" class="conveyor" gui-conveyor-id="10" conveyor-id="1" data-toggle="tooltip" data-html="true" title="">
    <rect width="42" height="35" rx="4" ry="4" class="status"/>
  </g>
  <g transform="translate(1244,20)" class="conveyor" gui-conveyor-id="10" conveyor-id="1" data-toggle="tooltip" data-html="true" title="">
    <rect width="42" height="105" rx="4" ry="4" class="status"/>
  </g>


  <g transform="translate(558,264)" class="conveyor" gui-conveyor-id="10" conveyor-id="1" data-toggle="tooltip" data-html="true" title="">
    <rect width="42" height="35" rx="4" ry="4" class="status"/>
  </g>
  <g transform="translate(558,304)" class="conveyor" gui-conveyor-id="10" conveyor-id="1" data-toggle="tooltip" data-html="true" title="">
    <rect width="42" height="43" rx="4" ry="4" class="status"/>
  </g>
  <g transform="translate(553,352)" class="conveyor" gui-conveyor-id="10" conveyor-id="1" data-toggle="tooltip" data-html="true" title="">
    <rect width="52" height="105" rx="4" ry="4" class="status"/>
  </g>
  <g transform="translate(637,264)" class="conveyor" gui-conveyor-id="10" conveyor-id="1" data-toggle="tooltip" data-html="true" title="">
    <rect width="42" height="43" rx="4" ry="4" class="status"/>
  </g>
  <g transform="translate(637,312)" class="conveyor" gui-conveyor-id="10" conveyor-id="1" data-toggle="tooltip" data-html="true" title="">
    <rect width="42" height="35" rx="4" ry="4" class="status"/>
  </g>
  <g transform="translate(684,312)" class="conveyor" gui-conveyor-id="10" conveyor-id="1" data-toggle="tooltip" data-html="true" title="">
    <rect width="47" height="35" rx="4" ry="4" class="status"/>
  </g>
  <g transform="translate(736,264)" class="conveyor" gui-conveyor-id="10" conveyor-id="1" data-toggle="tooltip" data-html="true" title="">
    <rect width="47" height="43" rx="4" ry="4" class="status"/>
  </g>
  <g transform="translate(736,312)" class="conveyor" gui-conveyor-id="10" conveyor-id="1" data-toggle="tooltip" data-html="true" title="">
    <rect width="47" height="35" rx="4" ry="4" class="status"/>
  </g>
  <g transform="translate(788,312)" class="conveyor" gui-conveyor-id="10" conveyor-id="1" data-toggle="tooltip" data-html="true" title="">
    <rect width="47" height="35" rx="4" ry="4" class="status"/>
  </g>
  <g transform="translate(840,312)" class="conveyor" gui-conveyor-id="10" conveyor-id="1" data-toggle="tooltip" data-html="true" title="">
    <rect width="47" height="35" rx="4" ry="4" class="status"/>
  </g>
  <g transform="translate(892,264)" class="conveyor" gui-conveyor-id="10" conveyor-id="1" data-toggle="tooltip" data-html="true" title="">
    <rect width="42" height="43" rx="4" ry="4" class="status"/>
  </g>
  <g transform="translate(892,312)" class="conveyor" gui-conveyor-id="10" conveyor-id="1" data-toggle="tooltip" data-html="true" title="">
    <rect width="42" height="35" rx="4" ry="4" class="status"/>
  </g>
  <g transform="translate(972,264)" class="conveyor" gui-conveyor-id="10" conveyor-id="1" data-toggle="tooltip" data-html="true" title="">
    <rect width="42" height="35" rx="4" ry="4" class="status"/>
  </g>
  <g transform="translate(972,304)" class="conveyor" gui-conveyor-id="10" conveyor-id="1" data-toggle="tooltip" data-html="true" title="">
    <rect width="42" height="43" rx="4" ry="4" class="status"/>
  </g>
  <g transform="translate(967,352)" class="conveyor" gui-conveyor-id="10" conveyor-id="1" data-toggle="tooltip" data-html="true" title="">
    <rect width="52" height="105" rx="4" ry="4" class="status"/>
  </g>
  <g transform="translate(1295,264)" class="conveyor" gui-conveyor-id="10" conveyor-id="1" data-toggle="tooltip" data-html="true" title="">
    <rect width="42" height="35" rx="4" ry="4" class="status"/>
  </g>
  <g transform="translate(1295,304)" class="conveyor" gui-conveyor-id="10" conveyor-id="1" data-toggle="tooltip" data-html="true" title="">
    <rect width="42" height="43" rx="4" ry="4" class="status"/>
  </g>
  <g transform="translate(1295,352)" class="conveyor" gui-conveyor-id="10" conveyor-id="1" data-toggle="tooltip" data-html="true" title="">
    <rect width="42" height="105" rx="4" ry="4" class="status"/>
  </g>



  <g transform="translate(100 270) rotate(-90)" class="photoeye" gui-input-id="14" input-id="0" data-toggle="tooltip" data-html="true" title="Photoeye">
    <polygon class="photoeye-fill status" points="12 6 0 0 0 12 12 6"></polygon>
    <rect class="photoeye-fill status" x="14" y="5" width="3.2" height="3.2"></rect>
    <rect class="photoeye-fill status" x="22" y="5" width="3.2" height="3.2"></rect>
    <rect class="photoeye-fill status" x="30" y="5" width="3.2" height="3.2"></rect>
    <rect class="photoeye-fill status" x="38" y="5" width="3.2" height="3.2"></rect>
    <rect class="photoeye-fill status" x="46" y="5" width="3.2" height="3.2"></rect>
    <rect class="photoeye-fill status" x="54" y="0" width="3.6" height="12"></rect>
  </g>
  <g transform="translate(160 270) rotate(-90)" class="photoeye" gui-input-id="14" input-id="0" data-toggle="tooltip" data-html="true" title="Photoeye">
    <polygon class="photoeye-fill status" points="12 6 0 0 0 12 12 6"></polygon>
    <rect class="photoeye-fill status" x="14" y="5" width="3.2" height="3.2"></rect>
    <rect class="photoeye-fill status" x="22" y="5" width="3.2" height="3.2"></rect>
    <rect class="photoeye-fill status" x="30" y="5" width="3.2" height="3.2"></rect>
    <rect class="photoeye-fill status" x="38" y="5" width="3.2" height="3.2"></rect>
    <rect class="photoeye-fill status" x="46" y="5" width="3.2" height="3.2"></rect>
    <rect class="photoeye-fill status" x="54" y="0" width="3.6" height="12"></rect>
  </g>

  <g transform="translate(80 230)" class="motor cursor-pointer" gui-motor-id="1" motor-id="0" data-toggle="tooltip" data-html="true" title="motor">
    <circle class="status" cx="8.75" cy="8.75" r="7.304" stroke="black" stroke-width="1" fill="#e6e6e6" />
    <path d="M8.75,.75c-4.411,0-8,3.589-8,8s3.589,8,8,8,8-3.589,8-8-3.589-8-8-8Zm-7.304,8c0-4.028,3.277-7.305,7.304-7.305,2.014,0,3.84,.82,5.162,2.142l-10.325,10.325c-1.323-1.322-2.142-3.148-2.142-5.162Z"/>
  </g>
  <g transform="translate(80 200)" class="device" gui-device-id="23" device-id="0" data-toggle="tooltip" data-html="true" title="Device">
    <rect class="status" x="0" y="0" width="19.914" height="9.863" style="fill:#e6e6e6"/>
    <path d="M0,0v10h20v-10h-20Zm.686,9.318v-8.636h17.94l-17.393,8.636h-.547Z"/>
  </g>
</svg>