<?xml version="1.0" encoding="UTF-8"?>
<svg id="svg_general" xmlns="http://www.w3.org/2000/svg" xmlns:xlink="http://www.w3.org/1999/xlink" viewBox="0 0 1456 456">
  <defs>
    <style>
      .conveyor-fill{
      fill:#e6e7e8;
      }
      .photoeye-fill{
      fill:#CCC;
      }
      .bin-fill{
      fill: #e6e7e8;
      }
      .conveyor, .conveyor-bg, .bin, .photoeye{

      }
      .conveyor .status{
      fill: transparent;
      stroke-width:2;
      stroke:#28ad3f;
      }
      .cursor-pointer {
      cursor:pointer;
      }
    </style>
  </defs>
<!--  <image href="components/general/<%= system_general_layout_no %>/bg.png"/>-->


  <g transform="translate(20,220)" class="conveyor" gui-conveyor-id="10" conveyor-id="1" data-toggle="tooltip" data-html="true" title="">
    <rect width="100" height="35" rx="4" ry="4" class="status"/>
  </g>
  <g transform="translate(125,220)" class="conveyor" gui-conveyor-id="10" conveyor-id="1" data-toggle="tooltip" data-html="true" title="">
    <rect width="55" height="35" rx="4" ry="4" class="status"/>
  </g>
  <g transform="translate(185,220)" class="conveyor" gui-conveyor-id="10" conveyor-id="1" data-toggle="tooltip" data-html="true" title="">
    <rect width="55" height="35" rx="4" ry="4" class="status"/>
  </g>
  <g transform="translate(245,220)" class="conveyor" gui-conveyor-id="10" conveyor-id="1" data-toggle="tooltip" data-html="true" title="">
    <rect width="55" height="35" rx="4" ry="4" class="status"/>
  </g>
  <g transform="translate(305,220)" class="conveyor" gui-conveyor-id="10" conveyor-id="1" data-toggle="tooltip" data-html="true" title="">
    <rect width="55" height="35" rx="4" ry="4" class="status"/>
  </g>
  <g transform="translate(365,220)" class="conveyor" gui-conveyor-id="10" conveyor-id="1" data-toggle="tooltip" data-html="true" title="">
    <rect width="55" height="35" rx="4" ry="4" class="status"/>
  </g>
  <g transform="translate(425,220)" class="conveyor" gui-conveyor-id="10" conveyor-id="1" data-toggle="tooltip" data-html="true" title="">
    <rect width="95" height="35" rx="4" ry="4" class="status"/>
  </g>
  <g transform="translate(525,220)" class="conveyor" gui-conveyor-id="10" conveyor-id="1" data-toggle="tooltip" data-html="true" title="">
    <rect width="50" height="35" rx="4" ry="4" class="status"/>
  </g>
  <g transform="translate(580,220)" class="conveyor" gui-conveyor-id="10" conveyor-id="1" data-toggle="tooltip" data-html="true" title="">
    <rect width="50" height="35" rx="4" ry="4" class="status"/>
  </g>
  <g transform="translate(635,220)" class="conveyor" gui-conveyor-id="10" conveyor-id="1" data-toggle="tooltip" data-html="true" title="">
    <rect width="50" height="35" rx="4" ry="4" class="status"/>
  </g>
  <g transform="translate(690,220)" class="conveyor" gui-conveyor-id="10" conveyor-id="1" data-toggle="tooltip" data-html="true" title="">
    <rect width="50" height="35" rx="4" ry="4" class="status"/>
  </g>


  <g transform="translate(120 210) rotate(90)" class="photoeye" gui-input-id="14" input-id="0" data-toggle="tooltip" data-html="true" title="">
    <polygon class="photoeye-fill status" points="12 6 0 0 0 12 12 6"></polygon>
    <rect class="photoeye-fill status" x="14" y="5" width="3.2" height="3.2"></rect>
    <rect class="photoeye-fill status" x="22" y="5" width="3.2" height="3.2"></rect>
    <rect class="photoeye-fill status" x="30" y="5" width="3.2" height="3.2"></rect>
    <rect class="photoeye-fill status" x="38" y="5" width="3.2" height="3.2"></rect>
    <rect class="photoeye-fill status" x="46" y="5" width="3.2" height="3.2"></rect>
    <rect class="photoeye-fill status" x="54" y="0" width="3.6" height="12"></rect>
  </g>



</svg>